<svg id="Layer_1" data-name="Layer 1" xmlns="http://www.w3.org/2000/svg" xmlns:xlink="http://www.w3.org/1999/xlink" viewBox="0 0 515.58 425.29"><defs><style>.cls-1{fill:#231f20;}.cls-2{fill:url(#linear-gradient);}.cls-3{fill:url(#linear-gradient-2);}.cls-4{fill:url(#linear-gradient-3);}.cls-5{fill:url(#linear-gradient-4);}.cls-6{fill:url(#linear-gradient-5);}.cls-7{fill:url(#linear-gradient-6);}.cls-8{fill:url(#linear-gradient-7);}.cls-9{fill:url(#linear-gradient-8);}.cls-10{fill:url(#linear-gradient-9);}.cls-11{fill:url(#linear-gradient-10);}.cls-12{fill:url(#linear-gradient-11);}.cls-13{fill:url(#linear-gradient-12);}</style><linearGradient id="linear-gradient" x1="345.04" y1="22.74" x2="345.04" y2="280.6" gradientUnits="userSpaceOnUse"><stop offset="0" stop-color="#00aeef"/><stop offset="1" stop-color="#2e3192"/></linearGradient><linearGradient id="linear-gradient-2" x1="257.69" y1="2.6" x2="257.69" y2="301.46" xlink:href="#linear-gradient"/><linearGradient id="linear-gradient-3" x1="170.1" y1="22.72" x2="170.1" y2="280.85" xlink:href="#linear-gradient"/><linearGradient id="linear-gradient-4" x1="288.99" y1="323.26" x2="288.99" y2="380.22" xlink:href="#linear-gradient"/><linearGradient id="linear-gradient-5" x1="422.63" y1="323.2" x2="422.63" y2="380.16" xlink:href="#linear-gradient"/><linearGradient id="linear-gradient-6" x1="224.7" y1="323.21" x2="224.7" y2="380.15" xlink:href="#linear-gradient"/><linearGradient id="linear-gradient-7" x1="482.16" y1="323.18" x2="482.16" y2="380.37" xlink:href="#linear-gradient"/><linearGradient id="linear-gradient-8" x1="168.64" y1="323.22" x2="168.64" y2="380.16" xlink:href="#linear-gradient"/><linearGradient id="linear-gradient-9" x1="358.01" y1="323.27" x2="358.01" y2="381.27" xlink:href="#linear-gradient"/><linearGradient id="linear-gradient-10" x1="86.91" y1="323.19" x2="86.91" y2="380.23" xlink:href="#linear-gradient"/><linearGradient id="linear-gradient-11" x1="28.12" y1="321.89" x2="28.12" y2="381.25" xlink:href="#linear-gradient"/><linearGradient id="linear-gradient-12" x1="125" y1="366.39" x2="125" y2="380.63" xlink:href="#linear-gradient"/></defs><title>Untitled-3</title><path class="cls-1" d="M468,425.29c-5.43-1.51-9.12-4.78-10.36-10.43-1.87-8.55,3.12-17.88,13.29-17.83,4,0,7.69.27,10.81,3.14,1,.91,1,1.48.08,2.31a10.35,10.35,0,0,0-1.36,1.37c-1.27,1.67-2.48,1.87-4.43.7-3.85-2.31-8.45-.93-10.11,2.68-2,4.38-.54,9.48,3.45,10.76a13.87,13.87,0,0,0,5.89.21c2.22-.28,2.27-2,1.72-4h-6.38V408h13c0,4,.21,8-.08,11.92-.18,2.41-2.51,3.34-4.44,4.31-.9.45-1.89.73-2.83,1.09Z"/><path class="cls-1" d="M258.63,425.29a13.58,13.58,0,0,1-7.38-4.77,46.57,46.57,0,0,1,3.4-4,2.15,2.15,0,0,1,2.06,0c2.39,1.93,5.16,2.2,8,1.88.94-.1,1.78-1,2.67-1.6-.72-.74-1.32-1.88-2.17-2.13-2.45-.71-5-1-7.5-1.55-3.85-.8-5.32-3.6-5.68-7.12a6.94,6.94,0,0,1,3.43-6.95c4.26-2.71,12.66-2.67,16.74.28a2.36,2.36,0,0,1,.5,2.25,22.53,22.53,0,0,1-2.51,3.37,51.2,51.2,0,0,0-7.16-1.43c-.93-.06-1.94,1.16-2.92,1.8a11.65,11.65,0,0,0,2.81,1.93c2.64.85,5.48,1.16,8,2.2,3.53,1.44,4.54,4.56,4.19,8.15-.33,3.36-2.35,5.46-5.36,6.72-.79.33-1.6.63-2.39,1Z"/><path class="cls-1" d="M178.81,218c-5.68-3.23-11.18-6.33-16.62-9.52a3.07,3.07,0,0,1-1-1.77,7.29,7.29,0,0,1,0-1.93c0-35.2.06-70.4-.09-105.6,0-2.82,1.48-3.42,3.31-4.43,4.49-2.5,8.9-5.14,13.35-7.71a9.22,9.22,0,0,1,1.05-.46Z"/><path class="cls-1" d="M332.4,411.33v13.36h-7.53V397.61a38.61,38.61,0,0,1,5.49.08,4.32,4.32,0,0,1,2.42,1.66c3,3.76,5.91,7.62,8.87,11.43a3.7,3.7,0,0,0,.75.59V397.73h7.4v27.06a47.34,47.34,0,0,1-5.46-.07,3.58,3.58,0,0,1-2-1.45c-3.17-4-6.27-8.08-9.39-12.14Z"/><path class="cls-1" d="M414.07,398c5.77,0,11.17-.24,16.54.08,3.85.22,6.3,2.89,7.15,6.5,1.12,4.72-.36,7.58-4.5,10.16a5.9,5.9,0,0,0-.6.49l7.23,9.53c-3.3,0-5.86.09-8.41-.06-.62,0-1.34-.76-1.78-1.34-1.51-2-2.85-4.08-4.41-6a10.47,10.47,0,0,0-2.39-1.69l-.62.47c0,2.16-.06,4.32,0,6.47.06,1.49-.3,2.17-2,2.21-6.25.15-6.25.21-6.25-6.12Zm8.28,12.06c2,0,3.64.07,5.32,0s2.33-1.25,2.41-2.78-.55-3-2.2-3.25a39.06,39.06,0,0,0-5.53-.06Z"/><path class="cls-1" d="M101.69,416.33v8.31H94.11V397.36c5.69.28,11.48.22,17.17,1,3.28.42,5.41,3.08,6,6.47.61,3.57.41,6.95-3.22,9.08a14.72,14.72,0,0,0-1.75,1.43c2.29,3,4.51,6,7.16,9.48-3.36,0-5.91.07-8.45,0a2.78,2.78,0,0,1-1.63-1.17c-1.57-2-3-4.2-4.6-6.19a11.06,11.06,0,0,0-2.43-1.69Zm.18-6.23c1.88,0,3.74.35,5.36-.12,1-.3,2.44-1.83,2.39-2.74a4.25,4.25,0,0,0-2.33-3.13c-1.65-.53-3.59-.14-5.42-.14Z"/><path class="cls-1" d="M393,397.79c.54,6.6.54,6.6-5.76,6.6h-7.4c-.51,3.3-.47,3.38,2.36,3.41,3.22,0,6.44,0,9.82,0v6.31H379.71v3.76h13.74v6.75H372V397.79Z"/><path class="cls-1" d="M174.75,424.79c1.08-2.6,1.92-4.75,2.86-6.86,2.81-6.29,5.64-12.58,8.56-18.82a2.89,2.89,0,0,1,2-1.44c6.46-.39,6.5-.36,9.14,5.49,3,6.65,5.93,13.32,8.88,20,.18.42.28.87.52,1.63-2.65,0-5.06.14-7.44-.09-.64-.06-1.54-1.15-1.69-1.89-.42-2-1.53-2.55-3.45-2.42a37.71,37.71,0,0,1-6.55,0c-2.15-.21-3.28.63-3.78,2.61a2.13,2.13,0,0,1-2.55,1.85C179.25,424.68,177.23,424.79,174.75,424.79Zm12.95-11.32h6l-3-7.58Z"/><path class="cls-1" d="M43.22,424.79c2.77-6.23,5.36-12.06,8-17.89,1.14-2.56,2.19-5.17,3.53-7.63a3.54,3.54,0,0,1,2.51-1.59c6.05-.3,6.07-.24,8.56,5.27q4.35,9.62,8.61,19.27a22.61,22.61,0,0,1,.76,2.57c-2.55,0-4.86.11-7.16-.08a2.44,2.44,0,0,1-1.65-1.56c-.57-2.28-1.87-3-4.15-2.78a51.53,51.53,0,0,1-7,0,2,2,0,0,0-2.44,1.73c-.44,2.21-1.7,3-3.92,2.71A50.87,50.87,0,0,0,43.22,424.79Zm13.1-11.24h6c-1-2.53-2-4.94-3.06-7.62Z"/><path class="cls-1" d="M16.51,410.84l11.74,13.33-.47.61c-2.88,0-5.77.1-8.64-.07-.7,0-1.43-.88-2-1.5A54.82,54.82,0,0,0,11,416.88v7.76H3.3V397.8h7.54v7.3l.56.3c1.59-1.91,3.29-3.75,4.74-5.77a4.27,4.27,0,0,1,4.22-2.06c2.15.17,4.32,0,7.35,0Z"/><path class="cls-1" d="M133.58,397.61c3.08,0,5.59-.09,8.08.06a3.07,3.07,0,0,1,2,1.33c1.55,2.33,3,4.75,4.58,7.41,1.65-2.57,3.18-5.05,4.84-7.43a3.13,3.13,0,0,1,1.95-1.31c2.41-.16,4.84-.06,7.81-.06-.68,1.22-1.12,2.17-1.7,3-2.79,4.13-5.64,8.22-8.4,12.38a3.83,3.83,0,0,0-.48,2c-.05,2.34,0,4.69,0,7a3.48,3.48,0,0,1,0,1.21c-1.28,3.27-4,.85-6,1.47-1.13.35-2.46.08-2.12-1.64,1.73-8.74-3.56-14.89-7.84-21.42C135.42,400.49,134.65,399.28,133.58,397.61Z"/><path class="cls-1" d="M295.21,397.72h7.63v26.93h-7.63Z"/><path class="cls-1" d="M512,424.74h-7.45v-27H512Z"/><path class="cls-2" d="M299.94,103.82l6.24,3.56,7.77,4.43,7.66,4.34q8.22,4.65,16.41,9.34c2.82,1.62,5.66,3.32,8.41,5q2.43,1.45,4.87,2.9a3.75,3.75,0,0,0,.89.44c1.28.12,3.42.82,3.42,4.14,0,22.18-.07,45.1-.2,68a5.43,5.43,0,0,1-2.24,4.18c-3.81,2.32-7.65,4.49-11.71,6.79l-4.12,2.34-2,1.12-.27-2.25c0-.27-.07-.53-.11-.79a12.36,12.36,0,0,1-.17-1.73c0-22.31,0-44.12,0-65.81,0-1.25-.24-1.6-1-2-3.25-1.83-6.51-3.75-9.67-5.6L320.53,140V245c1.07-.49,2-.92,2.91-1.44q7.55-4.4,15.07-8.82,7-4.11,14.05-8.22c4.8-2.79,10.24-6,15.71-8.9,1.18-.64,1.54-1.34,1.53-3q0-16.39,0-32.78V167c0-3.47,0-6.94,0-10.41,0-8.61,0-17.51,0-26.26a3.56,3.56,0,0,0-2.16-3.65c-5.5-3.08-11-6.29-16.41-9.4l-8.08-4.66-35.6-20.42L302,89.05a4.49,4.49,0,0,1-2.63-4.35c.25-5.46.38-10.43.39-15.18,0-9,0-18.18,0-27l0-11.06V22.74l6.93,4,9.48,5.47,10.5,6.1q8.72,5.05,17.43,10.1,6.66,3.86,13.36,7.67l12.5,7.18c6.38,3.68,12.59,7.3,18.44,10.77.22.13,2.1,1.29,2.14,2.92.13,5.59.15,11.26.17,16.75v1a6.32,6.32,0,0,1-.24,1.53c-.06.25-.13.54-.19.9l-.41,2L377.32,92,353.05,78q-4.86-2.79-9.7-5.63c-7.39-4.31-15-8.76-22.94-13,0,.78,0,1.55,0,2.3,0,4.55,0,8.84.1,13a3.58,3.58,0,0,0,1.24,1.18c1.45.83,3,1.6,4.47,2.35s3.25,1.64,4.84,2.56c1.77,1,3.49,2.14,5.16,3.22s3.29,2.13,5,3.11L360,98c9.31,5.37,18.95,10.92,28.39,16.44a5.51,5.51,0,0,1,2.31,4.17c.07,1.87,0,3.75-.08,5.56-.05,1.22-.1,2.48-.1,3.7l0,13.52c-.06,27.24-.12,55.41,0,83.11,0,2.9-.61,5-3.77,6.74-5.09,2.75-10.19,5.71-15.12,8.58l-4.26,2.46-9.26,5.38c-3.79,2.21-7.58,4.42-11.38,6.6l-15.16,8.68q-7.43,4.23-14.85,8.49c-2.17,1.25-4.31,2.52-6.46,3.79-1.71,1-3.43,2-5.15,3a16,16,0,0,1-1.95.92c-.33.14-.69.29-1.07.47l-2.12,1Z"/><path class="cls-1" d="M301.21,25.34c5,2.89,9.59,5.52,14.16,8.17q14,8.1,27.93,16.2c8.6,5,17.25,9.88,25.86,14.85q9.24,5.32,18.43,10.76c.6.36,1.38,1.09,1.4,1.67.14,5.9.15,11.8.17,17.69a13.38,13.38,0,0,1-.41,2.13c-11.86-6.82-23.4-13.47-34.95-20.1s-22.67-13.39-34.89-19.85c0,6.59-.08,12.24.09,17.89,0,.85,1.12,1.93,2,2.43,3.05,1.74,6.28,3.15,9.31,4.91,3.45,2,6.69,4.33,10.13,6.33,15.73,9.12,31.51,18.15,47.22,27.31a4.08,4.08,0,0,1,1.56,2.94c.12,3.06-.18,6.13-.18,9.2-.07,32.21-.17,64.43,0,96.64,0,2.78-.61,4.13-3,5.41-6.55,3.54-13,7.34-19.42,11.06-6.89,4-13.74,8-20.64,12-10,5.74-20,11.43-30,17.17-3.89,2.24-7.73,4.58-11.61,6.83-.81.47-1.71.79-2.89,1.32V106.4l11.77,6.71c8,4.56,16.06,9.09,24.06,13.68,4.45,2.56,8.84,5.24,13.27,7.85a3.77,3.77,0,0,0,1.51.64c1.68.16,2.06,1.3,2.06,2.65q-.06,34-.2,68a3.94,3.94,0,0,1-1.52,2.9c-5.08,3.08-10.29,6-15.8,9.11a23,23,0,0,1-.27-2.35q0-32.91,0-65.81a3.25,3.25,0,0,0-1.74-3.32c-5-2.79-9.84-5.71-14.76-8.56a.34.34,0,0,0-.18,0c-.17,0-.39.06-.65.07V247.37c1.94-.93,3.62-1.59,5.16-2.48,9.72-5.66,19.41-11.38,29.13-17,5.19-3,10.38-6,15.66-8.88,1.89-1,2.33-2.43,2.32-4.33q0-23.8,0-47.6c0-12.22-.06-24.44,0-36.66a5,5,0,0,0-2.92-5c-8.21-4.6-16.32-9.37-24.48-14q-20.58-11.82-41.18-23.61a3,3,0,0,1-1.88-3c.23-5.08.37-10.16.39-15.24,0-12.71,0-25.42,0-38.12V25.34m-3-5.19V31.41c0,3.68,0,7.36,0,11,0,8.87,0,18,0,27.07,0,4.74-.14,9.68-.39,15.11a6,6,0,0,0,3.39,5.72l5.55,3.18Q324.6,103.75,342.41,114l8.09,4.67c5.36,3.1,10.91,6.31,16.41,9.4a2.12,2.12,0,0,1,1.39,2.33c-.05,8.73,0,17.6,0,26.18,0,3.5,0,7,0,10.5V182.4q0,16.13,0,32.24c0,1.29-.2,1.4-.74,1.69-5.5,3-10.95,6.13-15.75,8.93s-9.33,5.45-14,8.18c-5,2.91-10.09,5.92-15.14,8.85l-.65.36v-100l1.41.83c3.17,1.86,6.44,3.78,9.71,5.61l.17.12a2.78,2.78,0,0,1,0,.59c-.05,21.4,0,42.47,0,65.81a13.16,13.16,0,0,0,.19,2c0,.23.07.48.1.74l.54,4.49,3.93-2.24,4.1-2.32c4.08-2.31,7.93-4.49,11.77-6.83a6.87,6.87,0,0,0,3-5.45c.13-23,.17-45.85.2-68,0-4.57-3.29-5.45-4.59-5.62l-.4-.23-.06,0-4.87-2.89c-2.75-1.64-5.59-3.34-8.43-5-5.45-3.13-11-6.28-16.38-9.33-2.56-1.45-5.13-2.9-7.68-4.36L306.77,106l-3.84-2.19-4.49-2.56V282.92l4.24-1.91,1-.45a19.46,19.46,0,0,0,2.12-1l5.2-3.07c2.09-1.24,4.26-2.53,6.4-3.76q7.35-4.23,14.74-8.43,7.63-4.37,15.27-8.74c3.81-2.19,7.66-4.43,11.39-6.61,3.08-1.79,6.16-3.59,9.25-5.37l4.24-2.46c4.93-2.86,10-5.82,15.11-8.56,3.25-1.76,4.56-4.09,4.55-8.06-.11-27.61-.05-55.69,0-82.84l0-13.78c0-1.2.05-2.39.1-3.65.08-1.84.16-3.75.08-5.68a7,7,0,0,0-3-5.41c-9.46-5.52-19.11-11.08-28.43-16.46q-9.41-5.43-18.79-10.86c-1.65-1-3.24-2-4.92-3.07s-3.42-2.22-5.21-3.26c-1.64-.94-3.31-1.79-4.93-2.6s-3-1.51-4.4-2.31a2.43,2.43,0,0,1-.49-.41c-.12-4-.1-8-.09-12.3,7.12,3.89,14,7.9,20.69,11.8,3.18,1.86,6.47,3.78,9.71,5.64,8,4.59,16,9.2,24.1,13.86l10.86,6.24,3.63,2.09.81-4.1c.06-.34.13-.61.18-.85a7.65,7.65,0,0,0,.28-1.87v-1c0-5.49,0-11.17-.17-16.77-.06-2.39-2.41-3.9-2.88-4.18-5.91-3.5-11.95-7-18.45-10.78q-6.29-3.63-12.58-7.22c-4.43-2.54-8.86-5.07-13.28-7.63q-8.69-5-17.35-10l-10.57-6.14-9.52-5.5-4.65-2.68-4.5-2.59Z"/><path class="cls-3" d="M244,297.74c-4.31-2.46-8.38-4.77-12.39-7.18a5,5,0,0,1-2.05-3.91c0-3.5.09-7,.16-10.48.07-3.71.15-7.55.15-11.32q-.06-75.72-.15-151.45l-.07-57.88c0-4.77,0-9.54,0-14.3q0-9,0-18c0-.85,0-1.7-.08-2.54,0-1.08-.11-2.19-.08-3.31,0-.6.15-2.6,1.46-3.38,4.34-2.62,8.72-5.15,13.35-7.83l6.15-3.57V140a13.91,13.91,0,0,0,.06,1.58,12.32,12.32,0,0,0,1.58.07h.23l3.32,0H259c1.87,0,3.4,0,4.81.07H264a1.54,1.54,0,0,0,.78-.11h0a2.5,2.5,0,0,0,.13-1q-.06-18,0-35.95s0-78,0-96.64c0-.53,0-1,.1-1.62,0-.29.06-.61.08-1L265.21,3l2,1.11,2.85,1.55c2.18,1.18,4.24,2.29,6.31,3.47.85.48,1.67,1,2.46,1.52a30.81,30.81,0,0,0,3.62,2.11,5.36,5.36,0,0,1,3.41,5.54c-.15,10.56-.29,21.87-.31,33-.06,25.22-.07,50.87-.07,75.68v8.82c0,.87.08,1.74.17,2.67l.09,1c.27,3.37-1.56,5.64-3.17,7.65-.51.63-1,1.23-1.4,1.85-1.09,1.65-1.71,2.61-1.72,3.19s.56,1.42,1.68,3c.27.36.55.71.84,1.07a15.51,15.51,0,0,1,1.71,2.41l.13.24a10,10,0,0,1,1.58,4.57q0,21.09,0,42.19c0,25.25,0,51.36.14,77,0,4.82-1,8.24-6,10.43a66.56,66.56,0,0,0-8.3,4.58c-1.31.8-2.63,1.61-4,2.41l-2.25,1.3V162.78H250.54V301.46Z"/><path class="cls-1" d="M249,5.21v6q0,64.35,0,128.7c0,3,.17,3.15,3.14,3.15h.25l6.64,0c1.59,0,3.18,0,4.77.07H264c1.82,0,2.42-.74,2.41-2.64-.06-16.27,0-32.54,0-48.81q0-41.89,0-83.78c0-.7.1-1.41.18-2.48,3.2,1.75,6.2,3.33,9.14,5,2.09,1.19,4,2.69,6.19,3.69a3.91,3.91,0,0,1,2.54,4.15c-.15,11-.29,22-.31,33Q284,93.54,284,135.79c0,1.28.16,2.55.26,3.83.3,3.72-2.56,5.89-4.32,8.55-2.56,3.87-2.69,4.17,0,7.86a31,31,0,0,1,2.44,3.31,9.67,9.67,0,0,1,1.53,4.1c.06,39.74-.07,79.49.16,119.23,0,4.54-.8,7.18-5.11,9s-8.06,4.52-12.48,7.07V161.28H249v137.6c-6-3.43-11.37-6.43-16.64-9.61a3.53,3.53,0,0,1-1.33-2.62c0-7.27.31-14.53.31-21.8q-.07-104.67-.22-209.33c0-10.76,0-21.53,0-32.29,0-1.94-.2-3.88-.16-5.82,0-.73.23-1.83.73-2.13C237.26,12,242.88,8.73,249,5.21M252,0l-4.5,2.61c-1.31.77-2.61,1.51-3.88,2.25-4.64,2.69-9,5.22-13.4,7.85-1.9,1.15-2.16,3.63-2.18,4.64,0,1.17,0,2.31.08,3.41,0,.86.08,1.67.08,2.47q0,9,0,17.92c0,4.79,0,9.58,0,14.38l.07,58.26c.05,49.51.11,100.71.15,151.06,0,3.75-.08,7.58-.15,11.29-.07,3.44-.15,7-.16,10.5a6.48,6.48,0,0,0,2.78,5.2c4,2.42,8.09,4.74,12.41,7.19l4.29,2.45,4.49,2.57V164.28h11.45V304l4.5-2.6c1.41-.81,2.76-1.64,4.05-2.43a66.67,66.67,0,0,1,8.12-4.48c5.79-2.51,6.95-6.54,6.92-11.81-.15-25.73-.15-51.9-.14-77.2,0-13.77,0-28,0-42a11.37,11.37,0,0,0-1.76-5.29l-.13-.24a17.49,17.49,0,0,0-1.86-2.64c-.29-.35-.56-.68-.8-1a18,18,0,0,1-1.36-2.07,20.05,20.05,0,0,1,1.44-2.36c.37-.56.83-1.13,1.32-1.74,1.7-2.11,3.81-4.74,3.49-8.71,0-.35-.06-.71-.09-1.06-.08-.89-.16-1.73-.16-2.53V128c0-25.15,0-51.15.08-76.72,0-11.09.16-22.4.31-33a6.86,6.86,0,0,0-4.28-6.92,30.53,30.53,0,0,1-3.44-2c-.81-.52-1.65-1.06-2.53-1.57-2.07-1.18-4.14-2.29-6.32-3.47L268,2.8,263.88.57l-.34,4.64c0,.35-.06.66-.08.94a17.32,17.32,0,0,0-.11,1.76q0,29.36,0,58.7v38c0,11.65,0,23.69,0,35.54-1.31,0-2.74-.06-4.44-.06h-3.34l-3.3,0h-.39V140q0-53.31,0-106.64V0Z"/><path class="cls-4" d="M213.42,279.79l-1.4-.68c-.81-.38-1.5-.71-2.17-1.09l-14.08-8.11q-8.19-4.73-16.4-9.44c-5.71-3.28-11.44-6.52-17-9.64a4.78,4.78,0,0,1-2.68-5c.15-3.42.06-6.93,0-10.32,0-1.62-.08-3.23-.1-4.84a15.65,15.65,0,0,1,.16-2c0-.36.09-.76.14-1.22l.23-2.31,34.66,19.91V59.25a7.91,7.91,0,0,0-2.4,1.3,18.49,18.49,0,0,1-1.68,1.06c-3.23,1.71-6.45,3.62-9.56,5.47l-2.67,1.59c-2.49,1.46-5,2.94-7.45,4.41-3.82,2.27-7.77,4.62-11.68,6.89s-8.07,4.53-12,6.66c-1.25.68-1.55.9-1.5,2.43.16,5,0,10-.07,14.89-.07,3.07-.14,6.25-.15,9.37q0,43.89,0,87.79v40l-5.14-3c-2.07-1.22-4-2.34-5.86-3.44-2.23-1.3-4.77-2.78-7.29-4.18a4.45,4.45,0,0,1-2.44-4.64c.17-4,.13-8.13.1-12.1,0-1.45,0-2.9,0-4.34l-.05-25.17c-.06-33.62-.11-68.37-.24-102.56,0-3.7.39-7.48,5.37-9.51a47.77,47.77,0,0,0,7-3.82c1-.64,2.08-1.28,3.14-1.88L148,61.93q9.6-5.51,19.18-11Q179.12,44,191.07,37l24.51-14.27V280.85Z"/><path class="cls-1" d="M214.08,25.33V278.44c-1.53-.75-2.54-1.18-3.48-1.72-10.17-5.84-20.31-11.72-30.48-17.55q-8.49-4.88-17-9.65a3.3,3.3,0,0,1-1.91-3.61c.22-5.07-.07-10.17-.13-15.25,0-.83.15-1.67.29-3l34.9,20.05v-190a5.09,5.09,0,0,0-.77-.06c-2.23,0-3.76,1.7-5.51,2.62-4.18,2.21-8.22,4.69-12.29,7.09-6.38,3.76-12.72,7.59-19.12,11.31-3.94,2.29-8,4.46-12,6.63-1.55.84-2.35,1.51-2.28,3.8.26,8.06-.21,16.14-.22,24.21q-.06,59.73,0,119.47v5.67c-3.29-1.93-6-3.55-8.74-5.14-2.43-1.41-4.87-2.83-7.33-4.19-1.33-.74-1.74-1.58-1.67-3.27.24-5.49.1-11,.09-16.5q-.12-63.87-.29-127.73c0-3.71.44-6.49,4.44-8.12,3.62-1.48,6.9-3.82,10.32-5.79q13.51-7.76,27-15.52,16.47-9.53,32.89-19.12l13.31-7.75m3-5.22-4.51,2.63-4.39,2.56-8.92,5.19-8.94,5.2c-7.84,4.57-15.95,9.29-23.94,13.91-6.39,3.7-12.91,7.44-19.22,11l-7.78,4.47c-1.08.62-2.14,1.27-3.17,1.91a47.52,47.52,0,0,1-6.8,3.7c-6.33,2.59-6.31,8-6.3,10.91.13,34.25.18,69.09.24,102.77l.05,25c0,1.45,0,2.9,0,4.34,0,4,.07,8.06-.1,12a6,6,0,0,0,3.21,6c2.33,1.3,4.58,2.6,7.27,4.17,1.87,1.08,3.73,2.18,5.77,3.38l3,1.75,4.52,2.66V201.64c0-28.95,0-58.88,0-88.32,0-3.1.08-6.27.15-9.34.12-4.89.23-10,.07-15a3.08,3.08,0,0,1,0-.66A5.09,5.09,0,0,1,148,88c3.94-2.13,8-4.33,12.05-6.68s7.88-4.63,11.71-6.91q3.7-2.2,7.42-4.4l2.69-1.6c3.09-1.84,6.29-3.74,9.48-5.42a17,17,0,0,0,1.83-1.16l0,0V242.49l-12-6.91L162.82,225l-4-2.32-.46,4.62c0,.45-.09.84-.13,1.19a16.24,16.24,0,0,0-.17,2.17c0,1.63.06,3.28.1,4.87.09,3.37.18,6.85,0,10.21a6.24,6.24,0,0,0,3.45,6.37c5.6,3.13,11.32,6.37,17,9.63l16.47,9.49,14,8.06c.72.41,1.44.75,2.27,1.15l1.39.66,4.32,2.13V20.11Z"/><path class="cls-5" d="M315.33,380.22a6.84,6.84,0,0,1-1-.07,3.91,3.91,0,0,0-.49,0l-.53,0h-3.87c-1.18,0-2.4,0-3.2-.85s-.73-1.85-.65-3.41c.05-.9.11-2,.07-3.53-.16-6.66-.13-13.43-.1-20q0-3.76,0-7.53l-1.22,1.62-6.84,9-.87,1.15c-1.49,2-3,4-4.61,6a4.53,4.53,0,0,1-3.3,2.05c-1.52,0-2.59-1.21-3.27-2.13q-3.33-4.48-6.62-9l-6.11-8.28v6.46c0,7.86,0,16,0,24a4.64,4.64,0,0,1-1.08,3.4,3.94,3.94,0,0,1-3,1.05l-.55,0c-.86-.06-1.71-.08-2.51-.08s-1.62,0-2.38.08a5.53,5.53,0,0,1-.56,0,3.62,3.62,0,0,1-2.71-1,4.48,4.48,0,0,1-1-3.22c.05-6.86,0-13.83,0-20.57v-13.5c0-4.82,0-9.81,0-14.71a4.1,4.1,0,0,1,.92-3.05,3.27,3.27,0,0,1,2.45-.88,7.59,7.59,0,0,1,.79,0,37.14,37.14,0,0,0,3.86.22,22.38,22.38,0,0,0,3.05-.19,5.53,5.53,0,0,1,5.61,2.72c3.55,4.84,7,9.85,10.39,14.69l2,2.88a16,16,0,0,1,.86,1.4l2-2.65q2.87-3.87,5.71-7.75c.83-1.14,1.64-2.3,2.45-3.45,1.35-1.92,2.74-3.9,4.21-5.8a5.49,5.49,0,0,1,3.65-2c1.87-.13,3.76-.14,5.58-.15,1.07,0,2.15,0,3.22,0h.15a3.1,3.1,0,0,1,2.26.82A3.89,3.89,0,0,1,319,327c0,7,0,14.08,0,21.13v3.63c0,2.06,0,4.11,0,6.17,0,5.85,0,11.9.05,17.85a4.83,4.83,0,0,1-1.06,3.48A3.48,3.48,0,0,1,315.33,380.22Z"/><path class="cls-1" d="M315.87,324.76c1.57,0,1.61,1,1.61,2.24q0,12.38,0,24.76c0,8-.07,16,0,24,0,2-.5,2.92-2.14,2.92a5.4,5.4,0,0,1-.77-.06,5.37,5.37,0,0,0-.7,0l-1.17,0h-3.23c-3.4,0-2.14-.45-2.28-6.33-.24-9.78-.05-19.58-.07-29.37a10.35,10.35,0,0,0-.52-1.89c-3.69,4.89-6.95,9.22-10.23,13.55-1.81,2.38-3.6,4.77-5.46,7.11-.79,1-1.47,1.49-2.13,1.49s-1.32-.51-2.06-1.52c-4.47-6-8.89-12.09-13.35-18.12a21.41,21.41,0,0,0-1.95-1.9c-.07,1.45-.13,2.22-.13,3,0,10.36-.06,20.73,0,31.08,0,2.11-.72,2.94-2.54,2.94l-.46,0c-.86-.05-1.73-.08-2.6-.08s-1.67,0-2.49.09h-.45c-1.68,0-2.25-.83-2.24-2.67.07-9.39,0-18.78,0-28.17,0-6.88,0-13.76,0-20.64,0-1.68.37-2.41,1.87-2.41l.64,0a38.19,38.19,0,0,0,4,.23,23.35,23.35,0,0,0,3.25-.21,4.49,4.49,0,0,1,.62,0,4.4,4.4,0,0,1,3.58,2.17c4.24,5.77,8.29,11.67,12.37,17.54.64.92,1.12,1.94,1.67,2.92l1.05-.72c2.75-3.72,5.53-7.43,8.25-11.18,2.23-3.06,4.33-6.21,6.63-9.21A4,4,0,0,1,307,325c2.9-.21,5.82-.11,8.73-.19h.11m0-3h-.19c-1.05,0-2.14,0-3.18,0-1.85,0-3.76,0-5.68.16a6.9,6.9,0,0,0-4.74,2.54c-1.48,1.92-2.89,3.92-4.25,5.85-.8,1.14-1.61,2.29-2.44,3.43-1.89,2.6-3.84,5.23-5.73,7.78l-.63.84-1.72-2.47c-3.36-4.85-6.85-9.87-10.41-14.72a7.43,7.43,0,0,0-6-3.4,7.23,7.23,0,0,0-1,.07,20.77,20.77,0,0,1-2.84.18c-1.1,0-2.32-.07-3.71-.21a7.7,7.7,0,0,0-.94-.05,4.75,4.75,0,0,0-3.52,1.32,5.57,5.57,0,0,0-1.35,4.13c.06,4.91.05,9.91,0,14.75,0,1.95,0,3.9,0,5.85,0,2.55,0,5.11,0,7.66,0,6.72,0,13.66,0,20.49a6,6,0,0,0,1.47,4.28,5.08,5.08,0,0,0,3.77,1.41c.21,0,.43,0,.67,0,.73-.06,1.49-.08,2.27-.08s1.58,0,2.41.08l.65,0a5.42,5.42,0,0,0,4-1.49,6.14,6.14,0,0,0,1.52-4.47c-.07-8-.06-16.06,0-23.9v-2l3.38,4.6,6.64,9c.5.67,2,2.73,4.48,2.73a5.87,5.87,0,0,0,4.47-2.62c1.59-2,3.14-4,4.64-6l.87-1.15,5.35-7.07c0,1,0,2,0,3,0,6.56-.06,13.35.1,20,0,1.45,0,2.54-.07,3.41-.08,1.66-.16,3.24,1.06,4.53s2.93,1.31,4.29,1.31h3.23l.7,0h.47a1.28,1.28,0,0,1,.28,0,10,10,0,0,0,1.19.08,5,5,0,0,0,3.66-1.41,6.1,6.1,0,0,0,1.48-4.55c-.08-5.91-.06-11.93,0-17.76,0-2.08,0-4.16,0-6.23v-3.1c0-7.22,0-14.44,0-21.66a5.28,5.28,0,0,0-1.29-4,4.54,4.54,0,0,0-3.32-1.26Z"/><path class="cls-6" d="M400.54,380.16a3.47,3.47,0,0,1-2.56-.92,4.42,4.42,0,0,1-1-3.3q0-9.19,0-18.39v-6.13c0-2.15,0-4.31,0-6.46,0-5.84,0-11.87-.06-17.8a4.09,4.09,0,0,1,.92-3,3.89,3.89,0,0,1,2.88-.94H401c2,0,4.09.05,6.14.05h8c1.6,0,3.19,0,4.78,0,11.93.15,20.35,5,25,14.51,4.93,10,4.41,20.53-1.52,30.51-4,6.75-10.82,10.77-19.18,11.32-5.23.34-10.56.39-15.7.44-2.62,0-5.24.05-7.86.11Zm10.16-13.22c.83,0,1.64,0,2.45.06,1.18,0,2.34.07,3.49.07h0a33.11,33.11,0,0,0,4.4-.25c2.35-.32,5.63-1.06,7.93-2.79,5.88-4.4,6.18-10.75,5.4-15.31-1.42-8.25-6.24-12.27-14.73-12.28H415.8c-1.17,0-2.71,0-4.27-.15l-.42,0a2.32,2.32,0,0,0-.37,0,3.68,3.68,0,0,0-.07.88c.05,7,0,14.07,0,20.93,0,2.88,0,5.77,0,8.65Z"/><path class="cls-1" d="M400.76,324.71h.18c2.05,0,4.1.05,6.14.05l8.06,0c1.58,0,3.16,0,4.75,0,10.42.14,18.85,3.89,23.7,13.68s4,19.84-1.46,29.08c-3.88,6.55-10.37,10.09-18,10.59-7.81.52-15.66.37-23.49.55h-.11c-1.92,0-2-1.24-2-2.71q0-12.27,0-24.53c0-8.09.07-16.19-.05-24.28,0-1.91.53-2.43,2.3-2.43m15.88,43.86a33.57,33.57,0,0,0,4.61-.27,18.9,18.9,0,0,0,8.63-3.07c5.49-4.11,7.11-10.14,6-16.76-1.55-9-7.1-13.52-16.21-13.53h-.17l-3.68,0c-1.38,0-2.77,0-4.14-.14l-.55,0c-1.53,0-1.95.7-1.94,2.42.07,9.85,0,19.71,0,29.57,0,.47.08.93.14,1.65,2.51,0,4.94.14,7.3.14m-15.88-46.86h0a5.32,5.32,0,0,0-3.95,1.38,5.54,5.54,0,0,0-1.35,4.09c.08,5.9.07,11.92.06,17.74,0,2.17,0,4.33,0,6.5v6.64q0,8.94,0,17.88a5.84,5.84,0,0,0,1.42,4.36,4.88,4.88,0,0,0,3.62,1.36h.18c2.6-.06,5.27-.09,7.84-.11,5.17-.05,10.51-.1,15.78-.44,8.87-.58,16.1-4.86,20.37-12.06,6.2-10.43,6.74-21.48,1.57-31.94-5-10-13.82-15.18-26.36-15.34-1.59,0-3.19,0-4.78,0h-8.06c-2.37,0-4.31,0-6.08-.05Zm11.44,43.76q0-3.72,0-7.44c0-6.61,0-13.43,0-20.17,1.35.09,2.63.1,3.63.1h3.84c7.76,0,12,3.52,13.26,11,1,6-.59,10.68-4.81,13.85a16,16,0,0,1-7.25,2.5,31.55,31.55,0,0,1-4.2.24c-1.12,0-2.25,0-3.45-.07l-1,0Z"/><path class="cls-7" d="M207.57,380.15c-1.5,0-2.81-.08-3.68-1s-.89-2.38-.83-4.16c.14-4.38.11-8.84.08-13.16,0-1.51,0-3,0-4.51q0-9.88-.06-19.76l0-7.24c0-.36,0-.73,0-1.1a7.53,7.53,0,0,0-.06-1.87,3.64,3.64,0,0,1,.4-3.05,3.87,3.87,0,0,1,3.14-1.1c6.28,0,12.49,0,18.7,0q8.66,0,17.29-.05h0a4.14,4.14,0,0,1,3.11,1,4,4,0,0,1,.9,3.06c-.06,1.32-.05,2.68,0,4,0,.58,0,1.16,0,1.74a3.57,3.57,0,0,1-.84,2.69,3.64,3.64,0,0,1-2.69.88h-.25c-3.71-.09-7.68-.13-12.13-.13s-8.66,0-13.75.1a1.65,1.65,0,0,0-.36.46,68.5,68.5,0,0,0,0,8l.21.29h.37c7.79,0,15.71-.12,23.37-.23H241a9.41,9.41,0,0,0,1.3-.18c.4-.08.89-.16,1.5-.26l1.73-.26v1.75c0,.78,0,1.56,0,2.34,0,2.39,0,4.64-.13,6.95-.12,1.7-2.76,2.6-3.86,2.61-3.15,0-6.31,0-9.46,0H218.72a18.69,18.69,0,0,0-2.21.09,17.82,17.82,0,0,0-.07,2.17c0,.57,0,1.14,0,1.71,0,1.29,0,2.64-.06,4a2,2,0,0,0,0,.82h0a4.16,4.16,0,0,0,.74.06h.17c7.11-.19,14.33-.29,21.32-.39l2.91,0h.62c1.4,0,2.63.08,3.44,1s.73,2.46.51,4.29a8.25,8.25,0,0,0,.23,2.38c.38,2,.14,3.42-.73,4.47a5,5,0,0,1-4.1,1.53h-34Z"/><path class="cls-1" d="M242.6,324.71c1.93,0,2.53.71,2.45,2.53s0,3.88,0,5.83c0,1.45-.28,2.06-2,2.06h-.21c-4-.1-8.11-.13-12.16-.13-4.69,0-9.37.05-14.06.1-.55,0-1.51,1.13-1.55,1.78a71,71,0,0,0,0,8.25c0,.61.86,1.71,1.31,1.71h.76c8,0,16-.12,24-.23.69,0,1.39-.21,3-.45,0,3.16.11,6.18-.11,9.18,0,.48-1.55,1.21-2.39,1.22-3.13,0-6.27,0-9.41,0H218.71c-3.77,0-3.77.07-3.77,3.76,0,1.86.11,3.73,0,5.58s.52,2.49,2.28,2.49h.21c8.07-.22,16.14-.32,24.21-.44h.59c2.76,0,2.86.42,2.47,3.61a9.55,9.55,0,0,0,.25,2.85c.55,2.89-.46,4.21-3.36,4.21h-34c-3,0-3.12-.44-3-3.59.19-5.9.07-11.81.06-17.72q0-13.5-.09-27a14.6,14.6,0,0,0-.06-3.31c-.47-2,.41-2.31,2.09-2.31h.06q9.36,0,18.74,0,8.59,0,17.19-.05h0m0-3h-.07c-5.37,0-11,.05-17.17.05-5.51,0-11.46,0-18.73,0h-.07a5.23,5.23,0,0,0-4.32,1.67,4.88,4.88,0,0,0-.69,4.33,6.68,6.68,0,0,1,0,1.45c0,.39,0,.79,0,1.18l0,7.33q0,9.82.06,19.66c0,1.51,0,3,0,4.53,0,4.3.06,8.75-.08,13.09-.07,2-.13,3.82,1.25,5.25s3.34,1.44,4.76,1.44h34a6.46,6.46,0,0,0,5.26-2.08c1.15-1.39,1.5-3.31,1-5.7a7.69,7.69,0,0,1-.21-1.92c.24-2,.48-3.94-.88-5.47s-3.28-1.5-4.57-1.5h-.63l-3.11,0c-6.72.1-13.67.19-20.51.37.05-1.15,0-2.28,0-3.37,0-.56,0-1.12,0-1.68v-.75h14.18c3.82,0,6.73,0,9.45,0,1.7,0,5.14-1.25,5.34-4,.17-2.37.15-4.76.13-7.07,0-.77,0-1.55,0-2.33v-3.5l-3.46.53-1.53.26a10.65,10.65,0,0,1-1.06.16h-.28c-7.46.11-15.16.22-22.75.23-.08-2-.08-3.94,0-5.75,3.9-.05,8.3-.09,12.68-.09s8.39,0,12.09.13H243a4.55,4.55,0,0,0,5-5.07c0-.59,0-1.18,0-1.77,0-1.36,0-2.64,0-3.91a4.93,4.93,0,0,0-5.44-5.67Z"/><path class="cls-8" d="M504.41,380.37c-3.38,0-5.73-1.95-7.21-6-.12-.32-.23-.64-.34-1a16.19,16.19,0,0,0-1.21-2.88,1.63,1.63,0,0,0-.81-.51q-6.06-.07-12.14-.08c-4.4,0-8.35,0-12.08.12a3.87,3.87,0,0,0-1.52,1.45,23.86,23.86,0,0,0-2,4.77,5.11,5.11,0,0,1-5.17,3.85h-.22c-1.08,0-2.16,0-3.28,0h-7.78s5.46-12.27,6.74-15.13l14.44-32.36c.33-.74.65-1.49,1-2.23.68-1.59,1.38-3.23,2.2-4.82a4.51,4.51,0,0,1,3.35-2.28c1.55-.1,3.07-.15,4.54-.15s2.81,0,4.15.14a4.62,4.62,0,0,1,3.44,2.55c5.41,11.92,10.83,24.06,16.08,35.81l1.17,2.62c1.72,3.85,3.4,7.72,5.09,11.58a7.35,7.35,0,0,1,.37,1.21c0,.19.09.4.16.65l.42,1.51-1.54.34-.73.19a10.29,10.29,0,0,1-1.82.35l-.61,0c-.33,0-.65,0-1,0l-.82,0a4.38,4.38,0,0,0-.79.06A9.67,9.67,0,0,1,504.41,380.37ZM482.63,357.2h6.17a5.91,5.91,0,0,0,1-.07,5.77,5.77,0,0,0-.4-1.13c-1.23-2.73-2.44-5.47-3.65-8.2q-1.5-3.36-3-6.71c-.05-.1-.1-.2-.14-.3l-7.11,16.42Z"/><path class="cls-1" d="M482.83,324.68c1.36,0,2.71,0,4.06.13a3.23,3.23,0,0,1,2.17,1.68q8.71,19.17,17.25,38.42c1.72,3.85,3.4,7.71,5.08,11.57a13.07,13.07,0,0,1,.46,1.65,16,16,0,0,1-2.33.5l-.5,0c-.6,0-1.21-.06-1.8-.06a5.6,5.6,0,0,0-1.09.09,8.37,8.37,0,0,1-1.72.19c-3,0-4.7-2-5.8-5a24.77,24.77,0,0,0-1.67-4.08,2.89,2.89,0,0,0-2.08-1.25q-6.08-.07-12.14-.08c-4.05,0-8.09,0-12.13.12-1,0-2.18,1.2-2.77,2.16a24.54,24.54,0,0,0-2.18,5.07,3.64,3.64,0,0,1-3.75,2.84h-.18c-1.09,0-2.19,0-3.32,0l-5.47,0c2.15-4.83,4-8.93,5.8-13q7.21-16.19,14.44-32.36c1-2.32,1.95-4.71,3.12-7a3.1,3.1,0,0,1,2.12-1.49c1.47-.09,3-.14,4.43-.14m-.17,34h6.15c2.61,0,3.06-.82,1.95-3.31-2.23-5-4.42-9.94-6.63-14.91-.34-.76-.74-1.5-1.11-2.25h-.93c-2.89,6.67-5.77,13.33-8.86,20.48h9.43m.17-37h0c-1.49,0-3,.05-4.62.15a6.11,6.11,0,0,0-4.59,3.09c-.85,1.64-1.56,3.31-2.25,4.92-.31.74-.62,1.48-.95,2.21q-4.34,9.74-8.69,19.47L456,364.4c-1.24,2.77-2.47,5.54-3.8,8.53l-2,4.5-1.88,4.22h10.09c1.27,0,2.3,0,3.24,0h.26a6.55,6.55,0,0,0,6.58-4.86,22.81,22.81,0,0,1,1.9-4.47,3.33,3.33,0,0,1,.67-.75c3.61-.07,7.44-.11,11.68-.11,3.43,0,7.07,0,11.76.07a19,19,0,0,1,1,2.4c.12.32.23.65.35,1,1.7,4.61,4.6,6.94,8.62,6.94a11.28,11.28,0,0,0,2.33-.25,2.88,2.88,0,0,1,.48,0l.75,0c.35,0,.7,0,1,0l.72,0a10.81,10.81,0,0,0,2.09-.39l.68-.17,3.07-.69-.83-3q-.09-.34-.15-.6a9,9,0,0,0-.46-1.46c-1.7-3.91-3.38-7.75-5.09-11.59l-1.27-2.83c-5.21-11.68-10.6-23.76-16-35.61a6.14,6.14,0,0,0-4.71-3.43c-1.37-.09-2.8-.14-4.26-.14Zm-5,34,4.85-11.2,1.71,3.86c1.08,2.44,2.17,4.89,3.26,7.33h-9.82Z"/><path class="cls-9" d="M149.27,380.15c-3.77,0-4.81-1.07-4.81-4.89q0-10.17,0-20.33,0-14,0-27.94a3.8,3.8,0,0,1,.94-2.82,4,4,0,0,1,2.95-.95h.11q6.21.06,12.43,0l11.32,0c12.88,0,20.6,10.42,20.68,20.49.08,10.75-8.63,19.14-16.83,20.24a86.05,86.05,0,0,1-10,.54c-1.3,0-2.61,0-3.92.08-.65,0-1.3,0-2,0l-2,0c0,.8,0,1.6,0,2.38,0,3-.05,5.83.07,8.67a3.86,3.86,0,0,1-4.26,4.48l-2.43,0Zm16.23-28.73h5.81c2.65,0,4.5-.48,6.29-2.94,1.94-2.67,2.23-4.85,1-7.55-.89-1.94-2.63-4.29-5.9-4.41-1.85-.08-3.86-.11-6.32-.11l-4.69,0-3.36,0v14.95Z"/><path class="cls-1" d="M148.32,324.72h.09q6.19.06,12.4,0l11.38,0h.07a19,19,0,0,1,19.1,19c.07,9.56-7.59,17.68-15.52,18.74-4.53.61-9.17.45-13.76.61-.63,0-1.26,0-1.91,0l-3.54,0c0,4.41-.12,8.52.05,12.62.09,2.19-.9,2.87-2.79,2.91l-2.39,0h-2.22c-2.89,0-3.32-.38-3.32-3.39,0-16.09,0-32.18,0-48.28,0-1.83.73-2.26,2.39-2.26m8.51,28.2h14.53c3,0,5.35-.68,7.45-3.56,2.28-3.13,2.59-5.9,1.15-9.05s-3.78-5.16-7.2-5.29c-2.11-.09-4.23-.11-6.36-.11-3.15,0-6.33.05-9.57.05v17.95m-8.51-31.2a5.45,5.45,0,0,0-4,1.39,5.38,5.38,0,0,0-1.37,3.88c0,9.31,0,18.78,0,27.94q0,10.17,0,20.33c0,4.63,1.72,6.36,6.31,6.39h2.23l2.44,0a5.94,5.94,0,0,0,4.34-1.66,5.82,5.82,0,0,0,1.4-4.38c-.12-2.8-.1-5.61-.07-8.6,0-.29,0-.58,0-.87h.55c.77,0,1.41,0,2,0,1.29-.05,2.62-.07,3.9-.08a85.13,85.13,0,0,0,10.15-.56c9.91-1.32,18.21-11.28,18.13-21.73-.08-10.81-8.37-22-22.09-22h-.09l-11.37,0c-4.6,0-8.64,0-12.37,0ZM159.83,338l1.88,0,4.69,0c2.43,0,4.41,0,6.25.1,2,.08,3.55,1.27,4.58,3.54.85,1.85,1,3.51-.85,6.05-1.29,1.78-2.46,2.32-5,2.32H159.83V338Z"/><path class="cls-10" d="M358.08,381.27a27.53,27.53,0,0,1-12.17-2.81c-7.6-3.72-12-9.95-12.46-17.55s-.47-15.1-.5-22.46c0-2.38,0-4.76-.05-7.14,0-3.48,0-5.4,1.2-6.66s3.06-1.26,6.67-1.27l.65,0h.51a3,3,0,0,0,.48,0,4.5,4.5,0,0,1,1-.11,3.11,3.11,0,0,1,2.28.88,3.78,3.78,0,0,1,1,2.79c0,1.13-.09,2.26-.16,3.34-.09,1.32-.17,2.56-.14,3.81q.06,3.39.1,6.8c.08,6.53.16,13.29.78,19.86.48,5.09,6,7.84,11,7.84h.36c9-.25,11-7,11.11-12.55.11-6.66.09-13.45.07-20q0-4.54,0-9.08c0-.44,0-.88.06-1.4l0-.83.07-1.43h9.93a3.26,3.26,0,0,1,2.44.85,3.54,3.54,0,0,1,.85,2.57c0,4.28,0,8.56,0,12.84,0,5.82,0,11.83-.09,17.74a25.13,25.13,0,0,1-4.37,14.51c-3.22,4.53-7.83,7.4-14.08,8.77A30.59,30.59,0,0,1,358.08,381.27Z"/><path class="cls-1" d="M343.41,324.77c1.25,0,1.76.87,1.75,2.16,0,2.4-.35,4.8-.3,7.19.19,8.93.05,17.9.88,26.77.57,6,6.9,9.2,12.48,9.2h.41c8.92-.24,12.44-6.47,12.56-14,.16-9.7,0-19.41.05-29.11,0-.63.06-1.26.1-2.16h8.53c1.28,0,1.77.52,1.76,1.91-.08,10.19,0,20.38-.13,30.57a23.65,23.65,0,0,1-4.09,13.66c-3.23,4.55-7.83,7-13.18,8.17a28.82,28.82,0,0,1-6.15.68,25.92,25.92,0,0,1-11.51-2.66c-6.65-3.25-11.19-8.69-11.62-16.29-.56-9.82-.45-19.68-.55-29.53-.06-6.4,0-6.4,6.38-6.41h0l1.14,0a4,4,0,0,0,.78-.06,3.07,3.07,0,0,1,.7-.08m0-3a6,6,0,0,0-1.3.14h-.63l-.69,0c-3.8,0-6.08,0-7.76,1.71s-1.66,4-1.63,7.73c0,2.38,0,4.75.05,7.12,0,7.39.07,15,.5,22.56.46,8.16,5.19,14.84,13.3,18.81a29.05,29.05,0,0,0,12.83,3,31.6,31.6,0,0,0,6.79-.75c6.54-1.42,11.58-4.58,15-9.37a26.57,26.57,0,0,0,4.63-15.35c.09-5.92.09-11.93.1-17.75,0-4.21,0-8.56,0-12.84a4.94,4.94,0,0,0-1.29-3.63,4.68,4.68,0,0,0-3.47-1.3H368.48l-.14,2.86c0,.3,0,.57,0,.81,0,.53-.06,1-.06,1.48q0,4.56,0,9.1c0,6.55,0,13.33-.07,20-.12,7.17-3.36,10.9-9.65,11.07h-.32c-4.3,0-9.09-2.27-9.49-6.48-.61-6.51-.69-13.24-.77-19.74q0-3.42-.1-6.81c0-1.18.05-2.39.14-3.68.07-1.11.15-2.25.16-3.43a5.25,5.25,0,0,0-1.41-3.86,4.59,4.59,0,0,0-3.34-1.32Z"/><path class="cls-11" d="M83.1,380.23c-2.67,0-3.76-1.82-4.42-3.41q-5.93-14.38-11.9-28.76l-5.05-12.2c-1.06-2.55-2.12-5.11-3.15-7.67a13.88,13.88,0,0,1-.56-1.95c-.08-.33-.16-.69-.26-1.08l-.5-1.89h2c1,0,2.08,0,3.09,0s2,0,3,0a36.58,36.58,0,0,1,4.77.26c2.24.29,3.65,3.67,3.91,4.35,1.17,3,2.25,6.1,3.29,9.08.81,2.31,1.64,4.69,2.5,7,2.1,5.64,4.33,11.33,6.48,16.84l.36.92q4.91-12.74,9.77-25.56l2.16-5.65.18-.49c2.55-6.31,3.11-6.68,9.93-6.69h8l-2,4.91c-.74,1.85-1.41,3.53-2.11,5.2q-3.28,8-6.6,15.9l-6.46,15.55c-1.68,4-3.42,8.22-5.07,12.35a4.28,4.28,0,0,1-4.24,3l-.55,0c-1.11-.09-2.1-.13-3.06-.13a26.17,26.17,0,0,0-2.73.13A5.33,5.33,0,0,1,83.1,380.23Z"/><path class="cls-1" d="M65.25,324.69a34.77,34.77,0,0,1,4.58.25c1,.13,2.19,2.06,2.7,3.4,2,5.31,3.81,10.73,5.79,16.07,2.26,6.1,4.64,12.15,7,18.21a6.75,6.75,0,0,0,1.09,1.44c.47-.48,1.15-.87,1.37-1.44,4-10.47,8-21,12-31.45.08-.22.16-.45.25-.67,2.32-5.74,2.32-5.74,8.54-5.75h5.74c-1.23,3.05-2.21,5.56-3.24,8q-5.85,14.11-11.72,28.2C97.22,366.19,95,371.38,93,376.6a2.8,2.8,0,0,1-2.85,2.11l-.44,0c-1-.08-2.11-.13-3.17-.13a28,28,0,0,0-2.89.14l-.51,0c-1.67,0-2.41-1-3-2.48Q72,356.62,63.82,337c-1.29-3.12-2.59-6.23-3.85-9.36a27.46,27.46,0,0,1-.76-2.86c2.09,0,4.09-.08,6-.08m0-3c-1,0-2,0-3,0s-2,0-3.06,0h-3.9l1,3.77c.1.38.18.72.26,1a14.67,14.67,0,0,0,.63,2.16c1,2.58,2.1,5.17,3.15,7.68l.71,1.72,4.33,10.45c3.91,9.44,8,19.2,11.92,28.81a6.13,6.13,0,0,0,5.8,4.33c.26,0,.54,0,.82,0a23.44,23.44,0,0,1,2.58-.13c.92,0,1.88,0,2.94.12l.67,0a5.75,5.75,0,0,0,5.63-4c1.65-4.14,3.4-8.34,5.09-12.39l1.32-3.19q2.55-6.13,5.11-12.29,3.3-8,6.61-15.91c.7-1.69,1.39-3.41,2.12-5.23.36-.9.73-1.84,1.14-2.84l1.66-4.12H108.6c-7.47,0-8.53.72-11.32,7.63-.07.17-.13.34-.2.52l-.07.2-2.1,5.5c-2.74,7.18-5.55,14.57-8.36,21.89-1.82-4.66-3.67-9.42-5.42-14.13-.86-2.3-1.69-4.68-2.49-7-1-3-2.14-6.1-3.31-9.13-.44-1.15-2.11-4.91-5.12-5.3a39.57,39.57,0,0,0-5-.27Z"/><path class="cls-12" d="M30.9,381.25A32.76,32.76,0,0,1,14.77,377,24.33,24.33,0,0,1,3.26,362.47c-3.44-11.05-1.81-21.13,4.85-30,4-5.37,9.92-8.64,17.47-9.74.55-.08,1.12-.22,1.72-.36a14.12,14.12,0,0,1,3.27-.5,5.56,5.56,0,0,1,.82.05,50.8,50.8,0,0,1,10.76,2.29,37,37,0,0,1,7.66,4.14l.76.49a3.91,3.91,0,0,1,2.09,3.2c0,.91-.34,2.28-2.2,3.59A15.05,15.05,0,0,0,48.87,337,14.63,14.63,0,0,1,46.56,339a5.38,5.38,0,0,1-2.71.72,2.73,2.73,0,0,1-2-.66c-2.63-2.49-5.82-3.65-10-3.65a34.16,34.16,0,0,0-4,.27c-6.46.8-11.86,6.75-12.56,13.84-.67,6.77,1.08,11.81,5.35,15.4a14.94,14.94,0,0,0,9.87,3.6,20.28,20.28,0,0,0,5.81-.91,20.79,20.79,0,0,0,3.95-1.88c1-.53,1.92-1.07,3-1.53a4.35,4.35,0,0,1,1.71-.33,3.93,3.93,0,0,1,2.21.62c1.61,1.14,3.1,2.37,4.68,3.67.58.48,1.17,1,1.77,1.45l1.2,1-1,1.17a23.22,23.22,0,0,1-11.39,7.74A39.11,39.11,0,0,1,30.9,381.25Z"/><path class="cls-1" d="M30.57,323.39c.21,0,.43,0,.64,0a49.89,49.89,0,0,1,10.44,2.22,40.76,40.76,0,0,1,8.11,4.48c2,1.29,1.77,2.93-.16,4.31-1.37,1-2.43,2.37-3.84,3.25a4,4,0,0,1-1.91.49,1.39,1.39,0,0,1-.92-.25,15.23,15.23,0,0,0-11.09-4.06,33.92,33.92,0,0,0-4.23.29c-7.45.92-13.12,7.63-13.86,15.17-.66,6.62.79,12.43,5.88,16.7a16.41,16.41,0,0,0,10.83,4,21.58,21.58,0,0,0,6.25-1c2.47-.75,4.66-2.4,7.07-3.47a2.83,2.83,0,0,1,1.09-.2,2.44,2.44,0,0,1,1.35.34c2.17,1.54,4.18,3.29,6.38,5.07A21.91,21.91,0,0,1,41.91,378a37.67,37.67,0,0,1-11,1.74,31.1,31.1,0,0,1-15.4-4.05A22.94,22.94,0,0,1,4.69,362c-3.2-10.28-1.91-19.95,4.62-28.63,4.08-5.43,9.83-8.19,16.49-9.16a35.37,35.37,0,0,1,4.77-.84m0-3a15.9,15.9,0,0,0-3.61.54c-.57.14-1.11.26-1.6.33-7.95,1.16-14.16,4.63-18.45,10.33-7,9.26-8.68,19.79-5.08,31.32A25.76,25.76,0,0,0,14,378.32a34.24,34.24,0,0,0,16.87,4.43,40.39,40.39,0,0,0,11.89-1.88,25,25,0,0,0,12.1-8.2l2-2.34-2.4-1.93L52.72,367c-1.6-1.32-3.11-2.56-4.77-3.74a5.47,5.47,0,0,0-3.08-.89,5.8,5.8,0,0,0-2.31.46c-1.09.48-2.1,1.05-3.07,1.59a19.1,19.1,0,0,1-3.65,1.75,18.75,18.75,0,0,1-5.38.85,13.48,13.48,0,0,1-8.9-3.24c-3.92-3.3-5.46-7.78-4.83-14.11S22.2,337.84,28,337.12a31.33,31.33,0,0,1,3.86-.26c3.87,0,6.66,1,9,3.24a4.19,4.19,0,0,0,3,1.07,7,7,0,0,0,3.51-.95,16.33,16.33,0,0,0,2.55-2.1,13.68,13.68,0,0,1,1.42-1.25c2.52-1.78,2.85-3.8,2.83-4.85a5.38,5.38,0,0,0-2.78-4.42l-.77-.5a38,38,0,0,0-8-4.29,52.74,52.74,0,0,0-11.08-2.36,8.14,8.14,0,0,0-1-.06Z"/><path class="cls-13" d="M124.76,380.63a6.74,6.74,0,0,1-4.79-2,7.94,7.94,0,0,1-2.24-5.7c0-3.79,3-6.54,7.22-6.54a7.64,7.64,0,0,1,5.33,2.29,6.4,6.4,0,0,1,2,4.51,7.28,7.28,0,0,1-7.36,7.44Z"/><path class="cls-1" d="M125,367.89h0c3,0,5.82,2.58,5.81,5.29a5.77,5.77,0,0,1-5.89,5.95h-.12c-3.12,0-5.54-2.7-5.53-6.2,0-3,2.35-5,5.72-5m0-3h0c-5,0-8.71,3.38-8.72,8a9.42,9.42,0,0,0,2.68,6.77,8.19,8.19,0,0,0,5.85,2.44h.18a8.75,8.75,0,0,0,8.83-8.93,7.88,7.88,0,0,0-2.42-5.57,9.12,9.12,0,0,0-6.39-2.74Z"/></svg>